<svg width="68" height="69" viewBox="0 0 68 69" fill="none" xmlns="http://www.w3.org/2000/svg">
<path d="M42.3861 6.37762L42.2267 6.39157C42.2802 6.39648 42.3342 6.39176 42.3861 6.37762Z" fill="#202020"/>
<path d="M29.3342 14.1912C29.2624 14.2878 29.2568 14.3385 29.2793 14.3666C29.3019 14.3948 29.4139 14.1842 29.3342 14.1912Z" fill="#202020"/>
<path d="M27.3116 15.9473L27.2008 16.0573C27.248 16.0231 27.3116 15.9473 27.3116 15.9473Z" fill="#202020"/>
<path d="M42.0074 6.49754L42.4258 6.46094C42.4019 6.30242 42.2023 6.4303 42.0074 6.49754Z" fill="#202020"/>
<path d="M48.904 3.9617L48.7845 3.97216C48.7602 4.02524 48.7415 4.0807 48.7287 4.13765L48.904 3.9617Z" fill="#202020"/>
<path d="M53.7142 3.42539C53.8338 3.41493 53.7986 3.12691 53.8071 2.99566C53.7962 3.04843 53.7734 3.09806 53.7407 3.14089C53.708 3.18371 53.666 3.21864 53.618 3.24309C53.6352 3.31062 53.6682 3.3731 53.7142 3.42539Z" fill="#202020"/>
<path d="M44.968 4.95267C44.9901 4.98405 45.02 5.00912 45.0547 5.02539C45.0364 4.99077 45.0053 4.96467 44.968 4.95267Z" fill="#202020"/>
<path d="M13.3148 55.162V55.082L13.2148 55.002L13.3148 55.162Z" fill="#202020"/>
<path d="M24.1681 19.5958C24.1314 19.7496 24.1551 19.6772 24.1681 19.5958Z" fill="#202020"/>
<path d="M42.8336 43.8014C43.3845 43.6729 42.3892 44.573 43.1687 44.3041C43.0357 44.2756 43.4321 43.5282 42.8336 43.8014Z" fill="#202020"/>
<path d="M20.5889 30.4707C20.5407 30.4979 20.4993 30.5359 20.4682 30.5816C20.4682 30.5816 20.5361 30.5556 20.5889 30.4707Z" fill="#202020"/>
<path d="M23.0797 22.7858L23.1844 22.606C23.1421 22.6613 23.1069 22.7218 23.0797 22.7858Z" fill="#202020"/>
<path d="M21.0058 35.2138C21.0284 35.1106 21.019 35.0028 20.9788 34.905L20.9832 34.9548C21.0084 34.9926 21.0238 35.0362 21.0277 35.0814C21.0317 35.1267 21.0242 35.1723 21.0058 35.2138Z" fill="#202020"/>
<path d="M22.0296 39.1706C22.0304 39.204 22.0333 39.2373 22.0383 39.2703L22.1094 39.3945L22.0296 39.1706Z" fill="#202020"/>
<path d="M25.6109 40.983C25.7143 40.9526 25.8226 40.9431 25.9297 40.9551C25.7243 40.9028 26.0359 40.3335 25.6109 40.983Z" fill="#202020"/>
<path d="M23.2578 35.5137L23.2012 34.8661C23.2072 35.0829 23.2261 35.2991 23.2578 35.5137Z" fill="#202020"/>
<path d="M48.0974 20.4803L48.207 20.4707C48.1893 20.4634 48.1701 20.4605 48.1511 20.4622C48.132 20.4639 48.1136 20.4701 48.0974 20.4803Z" fill="#202020"/>
<path d="M23.6466 37.8293C23.6916 37.6992 23.707 37.5606 23.6914 37.4238C23.6632 37.4037 23.6312 37.3894 23.5974 37.3818L23.6466 37.8293Z" fill="#202020"/>
<path d="M54.1451 11.8776C53.7702 12.4123 54.2757 12.338 54.3663 12.571C54.0072 13.285 53.9376 12.7189 53.6267 12.8365C53.4359 13.2948 53.5002 13.8012 53.2847 14.0911C53.2249 14.0963 53.1552 14.1024 53.1473 14.0127C53.0883 14.6001 52.254 15.2754 52.2253 15.9806C52.1874 15.9956 52.1458 15.9992 52.1058 15.991C52.2821 16.0127 52.4469 16.0896 52.5767 16.2108C52.4075 16.4565 52.4471 16.7943 52.192 16.7464C52.3002 16.6064 52.2334 16.532 52.2238 16.4224L52.1313 16.7417C51.693 16.78 52.2758 16.3275 52.0816 16.1738C51.9078 16.752 51.6402 17.2977 51.2894 17.789C50.9575 17.6675 51.8394 16.8475 51.2354 17.1714L51.764 16.6734C51.0021 16.8003 52.0466 16.3475 51.2895 16.4138C50.6579 17.1115 50.8101 17.3592 50.1785 18.0569C50.2029 18.3358 50.4489 18.1637 50.4741 18.4526C49.9537 19.7328 49.1575 18.7786 48.9285 19.8326C48.9582 20.1713 49.2386 20.5081 48.6333 20.9325L48.4754 20.5046C47.8945 21.2079 48.5914 21.2574 47.7999 21.8486C47.7799 21.6195 48.1452 21.2061 48.0218 21.2871C47.4052 21.582 47.9233 21.7675 47.6242 22.135L47.2915 22.0035C46.7392 22.8047 46.2525 23.7808 45.6266 24.6587C45.617 24.5491 45.5987 24.3399 45.3792 24.4696C44.5638 25.6265 43.5815 26.6562 42.4644 27.5252L42.3538 28.097C42.2711 28.1846 42.1091 28.1686 42.1485 28.0447C41.7337 28.3521 42.2711 28.1846 42.1833 28.4432C42.0955 28.7018 41.807 28.6167 41.8645 28.4711C41.3853 29.5615 40.6357 30.5116 39.6868 31.2314L39.75 31.0352C39.1681 31.4976 39.6279 32.0497 38.9632 32.3688L39.0116 32.2341C37.8336 33.3409 36.7849 34.7778 35.6196 35.3415C35.7437 35.8426 34.4233 36.2392 34.7376 36.7337C34.1308 36.8806 33.5334 37.0636 32.9485 37.2817C32.6774 37.3958 32.7357 37.8324 32.4218 38.0305L32.2869 37.7512C32.1826 37.9177 32.0693 38.0784 31.9476 38.2326C31.8252 38.1481 31.7095 38.0542 31.6018 37.9516L31.3242 38.1064C31.4438 38.096 31.611 38.1717 31.6197 38.2713C31.505 38.3392 31.3766 38.3805 31.2438 38.3921C31.111 38.4037 30.9774 38.3854 30.8526 38.3384C30.7734 38.3217 30.7001 38.2839 30.6406 38.2291C30.581 38.1742 30.5373 38.1043 30.5142 38.0267C30.2048 38.0852 29.8851 38.054 29.5928 37.9367C29.6846 37.8383 29.8319 37.9158 29.9714 37.9036C29.4135 37.9524 30.0756 37.6033 29.5732 37.5971C29.581 37.6868 29.4225 37.7107 29.3753 37.7449C29.2259 37.341 29.0271 36.9572 28.7834 36.6021L29.0126 36.5821C28.8781 36.1923 28.7267 35.7237 28.5899 35.1936C28.4532 34.6635 28.3537 34.1001 28.2733 33.5249C28.2393 33.9394 27.8538 33.8929 27.7752 33.5685L28.0917 33.4002C27.8833 33.1976 27.9836 33.7711 27.7144 33.3329C27.7259 32.8902 28.0677 33.0109 28.1926 33.291L28.0568 32.7709C28.1564 32.7622 28.2149 32.8574 28.3371 32.8769C28.1277 32.6643 28.5999 31.9805 28.2325 31.6814L28.3321 31.6727C28.3621 31.0979 28.3445 30.6678 28.3322 30.2975C28.3376 29.8889 28.3655 29.481 28.416 29.0755C28.1401 29.0194 28.2491 28.6585 28.07 28.3328C28.343 27.6665 28.6505 26.9369 28.8823 26.1437C28.9296 25.5373 28.7111 25.9077 28.6243 25.6042C28.8786 25.6421 29.1086 24.829 29.1504 25.3072C29.2779 24.8142 29.4237 24.5304 29.5137 24.1812C29.6036 23.8321 29.69 23.4431 29.9075 22.8318C29.7534 22.9055 29.6343 23.0364 29.594 22.9194C29.5536 22.8025 29.9377 22.4878 30.0252 22.5705L30.0313 22.6402C30.1214 22.2614 30.2884 21.9051 30.522 21.5935C30.7747 21.2702 31.06 20.9742 31.3453 20.6783C31.896 20.088 32.4934 19.574 32.6122 18.9814L32.6184 19.0511C32.7871 18.685 32.9874 18.3362 33.1887 17.9974C33.5865 17.6113 33.1213 18.3747 33.505 18.1705C33.7163 17.6625 34.0632 17.2223 34.5079 16.8982C34.8913 16.6013 35.2421 16.2644 35.5543 15.8932C36.1092 15.925 36.6404 15.4569 37.2457 15.0325C37.7491 14.5457 38.3825 14.2149 39.0696 14.0799L38.9279 13.9518C39.0937 13.6663 39.2766 13.9213 39.4689 13.8242C39.3787 13.7116 39.1302 13.8538 39.2431 13.6532C41.3474 12.4801 43.7869 12.0543 46.1642 12.4454C46.9387 12.5784 46.7584 11.5502 47.7086 12.1998L47.3493 12.4521C48.194 12.4794 49.0115 12.7573 49.6978 13.2505C50.4205 13.7092 51.0515 14.2664 51.7586 14.7767C51.6391 14.7871 51.5594 14.7941 51.4511 14.7032C51.4868 15.1116 52.3105 15.692 52.4647 15.6183C52.6051 15.847 52.3582 15.7782 52.3847 15.9666C52.4867 16.3291 53.1578 16.5414 53.0535 16.8417C53.0535 16.8417 52.9288 16.7923 52.8846 16.746C53.1168 16.8763 53.41 17.7039 53.5424 17.3811C53.7377 18.0065 54.2178 18.4463 54.2567 19.005C54.696 19.2075 54.4647 20.1211 54.9239 20.091C54.4609 20.1918 54.9578 21.2826 55.1928 21.6736C55.0329 21.5671 55.1263 22.0609 54.9049 21.9397C54.9957 22.4036 55.1618 22.8106 55.3831 22.7009C55.0024 23.6276 55.9874 24.4449 55.3618 24.9815C55.4236 25.6888 55.5843 26.3774 55.6236 27.0565C55.663 27.7357 55.6516 28.4092 55.5887 29.0672C55.1871 28.9518 55.714 27.6308 55.2423 27.632C55.438 28.6884 55.4134 29.7739 55.1699 30.8204C55.025 31.1142 55.0303 30.6017 54.9692 30.4766C54.8373 31.7228 54.2951 32.754 54.1012 33.8651C54.1012 33.8651 54.0882 33.7157 54.0777 33.5962C54.0154 33.8024 53.8362 34.0489 54.0316 34.1021L54.0124 33.8829C54.4143 33.6571 54.2859 34.9431 54.3843 35.0349C54.0023 34.456 53.7744 35.9817 53.3881 35.1221C53.4003 35.2615 53.4186 35.4707 53.5117 35.5027C53.3871 35.6843 53.2883 35.703 53.2358 35.4466C53.0005 36.1999 53.3396 36.0599 52.9926 36.6825C52.9076 36.6297 52.9751 36.4832 52.875 36.3715C52.9122 36.8389 52.778 37.3038 52.4976 37.6794C52.4923 37.6196 52.3637 37.6409 52.4801 37.4802C52.1647 38.318 51.7259 39.1041 51.1784 39.8125C51.0326 39.2932 50.8273 40.044 50.4911 39.8726L50.2085 40.4294L50.5022 40.3435C50.1676 40.7642 50.1211 41.3806 49.7084 41.5974L49.8537 41.1932L49.2517 41.9987L49.7336 41.6554C49.5199 42.1961 50.1374 41.9112 49.578 42.4018C49.6464 42.2654 49.2127 42.8153 48.8675 42.8856C48.8334 43.0466 48.7679 43.1993 48.6747 43.3349C48.5815 43.4706 48.4624 43.5865 48.3243 43.676C48.1649 43.6899 48.0829 43.3257 47.9824 43.3244C48.0172 43.7229 47.1642 44.2994 47.1038 44.7564C47.1129 44.6981 47.1026 44.6384 47.0745 44.5864C47.0464 44.5345 47.002 44.4932 46.9482 44.4689L46.9769 44.7977C46.7357 44.9091 46.6851 44.9035 46.6023 44.7602C46.0104 45.2235 47.1013 44.9574 46.2868 45.4001C46.2816 45.3403 46.2807 45.3304 46.3599 45.203C45.7343 45.7901 45.0753 46.3404 44.3861 46.8513C43.971 46.6969 44.903 46.3343 44.494 46.2496C44.0572 46.6492 43.6247 47.0986 43.1589 47.5107C42.7393 47.9573 42.2549 48.3381 41.7219 48.6403L41.9258 48.5622C42.0634 49.1023 41.0523 48.7892 40.6757 49.304C40.7766 49.1948 40.6452 48.9553 40.6513 49.0251C39.8258 49.4937 39.04 50.0291 38.3019 50.6259L38.3759 50.4388C37.9021 50.5304 37.2434 50.9193 36.7549 51.0724C36.671 51.2605 36.3982 51.3546 36.6386 51.4641C34.9051 51.3848 34.0449 53.0261 32.4972 52.8904C32.6566 52.8765 32.8275 52.6507 32.7007 52.692L31.6315 53.2071C31.7983 53.3933 31.8195 53.291 32.118 53.3753C31.9562 53.605 31.7249 53.7766 31.4581 53.8647C31.9119 53.5439 31.3371 53.5139 31.072 53.4669C31.127 53.5223 31.0851 53.6163 31.0912 53.686C30.3712 53.488 31.133 54.1642 30.2385 54.1521L30.2272 54.0226C29.9686 54.2207 29.681 54.3779 29.3746 54.4887C29.1653 54.2761 29.656 54.2633 29.6169 54.0459C29.17 54.2155 28.8602 54.8047 28.3672 54.6772C28.5469 54.5511 28.8206 54.4669 29.0003 54.3407C28.7047 54.222 28.3767 54.2116 28.0742 54.3113L27.2573 54.3828L27.4765 54.3636C27.0888 55.2106 26.3306 54.8052 25.6648 55.4557C26.3133 54.8368 25.7309 55.1789 25.7039 54.8701C25.4847 54.8892 25.1581 54.8275 25.2191 54.7217C24.9074 55.0602 24.5538 54.6896 24.1239 55.1689C24.1161 55.0792 23.7198 55.2544 23.7478 55.001C23.2827 55.1923 23.9004 55.1383 23.8918 55.2695C23.2237 55.7797 22.0466 55.2904 21.0728 55.9779C20.1824 56.3569 20.0834 56.7169 19.2403 57.0617C18.911 56.9701 19.4064 56.6657 19.4064 56.6657C18.9667 56.6258 18.5248 56.7133 18.1335 56.9176C18.2045 56.8111 18.1196 56.7583 17.9424 56.6834C17.5898 56.7845 17.7763 57.0794 17.2703 57.0333C17.334 56.8646 17.4295 56.7098 17.5516 56.5771C17.1454 56.7531 16.767 57.0171 16.35 57.1841C16.1965 57.0369 16.5646 56.8843 16.6928 56.7425C16.216 56.9148 15.4529 57.1421 15.3478 57.4324L15.8048 57.4928C15.6255 57.5085 15.6661 57.2841 15.7804 57.2139C16.1571 56.93 16.398 57.1598 16.4483 57.2759L16.1482 57.4025C16.5838 57.9065 17.3834 57.0636 18.0075 56.9688L17.8267 57.4263L18.3978 56.9548C18.555 57.0313 18.6937 57.24 18.4335 57.3632C18.9247 57.4708 18.8054 57.1399 19.2304 57.2935C19.2304 57.2935 19.2348 57.3433 19.2365 57.3632L19.6492 57.1464C19.5782 57.253 19.7832 57.4158 19.5025 57.4202C20.3416 57.4874 20.7068 56.8431 21.0699 57.0924L21.0102 57.0976C22.0716 56.7237 21.0529 56.7827 21.7889 56.2465L22.5048 56.8564L22.5467 56.5315C22.6662 56.5211 22.8854 56.5019 22.875 56.6132C23.25 56.3094 22.7749 56.5015 22.974 56.2532C23.5792 56.4011 24.427 55.7647 24.6672 56.2155C24.8039 55.9426 24.1106 56.1638 24.6367 55.8669C24.9284 56.3332 25.2776 55.6201 25.8321 55.7623C25.7478 56.0608 25.2454 56.0545 25.7964 56.1569C25.9819 55.6387 26.7865 56 27.171 55.8057C27.1396 55.4471 28.0297 55.4094 28.6845 55.0911C29.3532 55.0664 30.0178 54.9746 30.6682 54.8172L30.6734 54.877C30.6394 54.4884 31.3605 54.3551 31.8104 54.1049C31.8296 54.3241 31.8392 54.4337 31.5842 54.6166L32.0319 54.457C32.1317 54.2732 32.2936 54.1309 32.4887 54.0556L32.5148 54.3545C33.1197 53.9863 33.769 53.6967 34.4471 53.4928C34.4244 53.2338 33.5966 53.0653 34.3678 52.5863C34.448 52.6997 34.5668 52.9101 34.4079 53.0445C34.4776 53.0384 34.6114 52.846 34.7716 52.842L34.5405 53.1835C34.9191 53.1504 34.6491 52.9331 34.9328 52.848C34.9991 53.0329 35.1879 52.896 35.2118 53.0545C35.2357 53.213 34.9428 53.078 34.8619 53.1855C35.1544 53.076 35.4713 53.0483 35.7784 53.1053C35.7099 53.0109 35.6769 52.8632 35.8865 52.7345C36.4551 52.4639 36.1794 52.8694 36.5553 52.8064C36.6392 52.6184 37.0685 52.5909 36.9535 52.3098C37.1276 52.2344 37.2078 52.3478 37.3118 52.3889C37.5616 52.1462 38.6758 51.6874 38.2444 51.5745L38.1547 51.5824C38.9955 50.8664 40.2074 50.7202 41.037 50.1056L41.0448 50.1952C41.5688 49.8464 42.0551 49.4439 42.4956 48.9942C42.658 48.8997 42.9738 48.9524 42.9626 49.0537C43.2243 48.7178 43.5796 48.4667 43.9836 48.332C43.6789 48.7501 44.2071 48.3626 43.6355 48.7138C44.2024 48.4233 44.4285 48.4838 44.8163 47.8676C44.7762 48.2125 45.3841 47.818 45.5841 47.5796L45.1237 47.7103C45.3567 47.498 45.6089 47.3079 45.8771 47.1424L45.9094 47.511C46.476 47.2588 46.9403 46.8218 47.2264 46.2715C47.3522 46.0329 47.525 45.8221 47.7343 45.652C47.9437 45.4819 48.1854 45.3559 48.4447 45.2816C48.5294 44.8726 47.8259 45.667 47.8599 45.2524C48.295 44.9978 48.7539 44.7861 49.2301 44.6206C49.9523 44.1559 49.4241 43.7403 50.1069 43.1687C49.9475 43.1826 49.6438 43.0385 49.977 42.4874C50.3102 41.9363 50.8397 42.2513 50.6593 42.5983C50.5692 42.7166 50.5013 42.7427 50.4688 42.7154C50.374 42.8943 50.2429 43.1166 50.4958 43.0242L50.4836 42.8848C50.772 42.7391 51.3083 42.0999 51.3318 42.3689C51.5144 41.9313 51.3074 42.0899 51.0459 42.3136C51.6542 41.8086 51.7852 41.3555 52.3576 40.7834C52.2324 40.8446 52.0388 40.8113 52.1284 40.8035C52.9263 39.9407 52.2408 40.2516 52.6333 39.5748C53.0308 39.2991 52.9063 39.9424 53.2131 39.2029C53.5845 38.8592 53.5414 39.2845 53.5099 39.4981C53.7378 38.7755 54.3492 38.4209 54.5977 38.0478L54.4913 38.4385C54.5508 38.2405 54.6354 38.0509 54.7431 37.8744L54.4287 37.9521C54.5741 37.7788 54.6698 37.6098 54.7538 37.6527C54.7294 37.3737 54.3193 37.6204 54.3555 37.1153C54.6196 36.9216 54.6508 36.2463 54.9757 36.2881C54.4741 37.0949 55.3106 36.3291 55.0455 37.0851C55.0974 36.8989 55.1843 36.7244 55.3016 36.5708C55.3016 36.5708 55.3068 36.6306 55.3129 36.7003C55.9536 35.9918 55.1753 36.1603 55.573 35.3124C55.6891 35.4929 55.9814 35.2766 56.0056 35.0938C55.8351 35.44 55.6669 35.1235 55.6662 34.7722C56.0129 34.26 55.7997 34.1181 55.9256 33.836L55.7417 34.1432C55.6156 33.9635 55.7025 33.6949 55.8378 33.2916C55.9773 33.2794 55.7913 33.6771 55.8614 33.5606C55.7446 33.0287 56.5271 32.6792 56.4968 31.9892C56.6951 31.7309 56.8235 32.051 56.9736 31.817C56.9065 31.0499 57.4441 31.1133 57.4125 30.2929C57.1367 30.4676 57.1809 30.514 57.0697 29.9314C57.0266 30.3568 57.0342 30.7878 56.9603 31.2058C56.9236 30.9134 56.8714 30.6231 56.8039 30.3361C56.7904 30.6608 56.7481 30.9836 56.6775 31.3008C56.6409 30.8824 56.6462 30.9422 56.4058 31.0636C56.9124 30.6579 56.4183 30.0587 56.7805 29.495L57.3541 29.6255C57.8214 28.7715 57.2999 27.9739 57.5809 26.8251L57.4429 27.1985C57.2371 27.0258 57.4897 26.4717 57.3462 26.0927C57.5407 26.136 57.6202 25.8981 57.7466 25.7365C57.5972 25.7496 57.7704 24.8611 57.3805 24.7647C57.469 24.5919 57.5473 24.4141 57.615 24.2322C57.6275 23.2273 56.9821 23.1934 56.9227 22.2852C57.1745 22.5241 57.2665 22.0844 57.489 22.6773C57.462 22.3685 57.4376 22.0895 57.299 22.1117C57.3821 21.9137 56.8789 21.3253 57.0022 21.0134C56.8921 20.9026 56.682 20.9109 56.6325 20.5739L56.7321 20.5652C56.7321 20.5652 56.4594 20.0872 56.3279 20.4199C56.4201 19.8262 56.332 19.2184 56.0749 18.6753C55.8117 18.1676 55.6634 17.6083 55.6404 17.0369C55.2884 16.4554 54.848 15.7812 54.483 15.2811C54.5527 15.275 54.5726 15.2733 54.6086 15.3404C54.2872 14.5354 53.8757 15.2239 53.5183 14.3517C53.4677 13.7739 53.9555 14.6447 53.867 14.3212C54.3033 13.8012 53.0795 13.4666 52.8864 12.7507L53.0246 12.839C52.8181 12.315 51.9604 12.1491 51.3247 11.6526C51.3247 11.6526 51.3944 11.6465 51.3883 11.5768C50.6043 11.3854 49.8303 11.155 49.0693 10.8862C49.3785 10.7488 49.4379 10.854 49.4062 10.6058C49.0661 10.5051 49.3414 11.013 48.6747 10.8505C48.5152 10.6336 48.0624 10.3921 48.067 10.1006C48.2832 10.162 48.5076 10.2026 48.7247 10.274C48.4935 9.81235 47.8717 10.0474 47.5389 9.91594L47.6164 9.76863C46.6019 9.64658 46.5163 10.0456 45.4347 9.9595L45.5457 10.0803C44.9785 10.4812 45.0448 9.86311 44.4798 10.1735L44.2664 9.80072C43.8758 9.92524 42.9699 10.3558 42.329 10.6026C42.7904 10.203 43.321 9.89117 43.8947 9.68266C43.5062 9.71665 42.582 9.93805 42.4318 10.172C42.576 10.0992 42.7449 9.96395 42.9078 9.98985C42.4318 10.4187 41.8597 10.727 41.2398 10.8887C41.2058 10.5001 40.6921 10.5953 40.1473 10.7935C39.6025 10.9917 38.9824 11.2468 38.5972 11.0897C38.0383 11.5001 37.4308 11.8398 36.7885 12.1012C36.1206 12.4353 35.4831 12.8269 34.8833 13.2717C35.6769 13.393 34.5282 13.5738 34.9469 13.9989C34.688 14.2525 34.5746 14.3327 34.5239 14.3271C34.158 14.4539 33.7988 14.5992 33.4477 14.7625C33.1389 14.7895 33.6082 14.4172 33.4908 14.3371C32.8743 14.8629 33.0724 14.3737 32.5636 14.6391C32.7915 14.7195 32.6002 15.0575 32.1819 15.325L32.8519 15.0656C32.2716 16.1202 31.7761 15.3906 31.2491 16.4807L31.3446 16.0808C31.1971 16.3447 30.8209 16.749 30.5153 17.1572C30.2289 17.5738 30.0728 18.0662 30.0669 18.5717C29.9473 18.5821 29.7282 18.6013 29.8511 18.3998C29.4236 19.0119 29.0769 19.6765 28.8195 20.3773C28.6405 21.009 28.353 21.6048 27.9697 22.138L27.886 21.9847C27.7974 22.2334 27.9322 22.5127 27.6924 22.7545C27.6924 22.7545 27.5987 22.6021 27.5377 22.7078C27.5455 23.063 27.466 23.4147 27.3061 23.7319L27.2765 23.3932C26.9824 23.8937 26.8344 24.4665 26.849 25.0468C26.8336 25.5601 26.8564 26.0499 26.7948 26.6074C26.3841 26.5028 25.9705 27.5127 25.8266 28.0473L25.7668 28.0525C25.594 29.461 25.6815 30.8892 26.025 32.266C25.7772 32.9387 25.7093 33.6643 25.8277 34.3713C25.9027 35.228 26.0509 36.1185 26.1938 36.9492C26.1712 36.6901 26.5325 36.9195 26.6721 37.1382C26.8117 37.3569 27.3872 37.969 27.0083 38.1126L26.9961 37.9731C26.7746 38.4242 27.3732 39.1849 27.9772 39.6641L28.3985 39.316C28.6827 39.7585 29.1227 40.0782 29.6313 40.212C30.1676 40.3734 30.7349 40.4029 31.2851 40.2982C32.2717 40.1014 33.0264 39.664 33.5692 39.7871C33.8976 39.5364 34.2091 39.2644 34.5018 38.9728L34.5869 39.2564C35.4097 38.833 36.1519 38.2686 36.7799 37.589L36.7272 37.9048C37.2675 37.4258 36.7837 36.7153 37.1872 36.2785L37.6131 36.442C38.3953 35.6307 39.5009 35.0722 39.9382 33.99C39.9785 34.03 40.0033 34.0829 40.0083 34.1395C40.0132 34.196 39.998 34.2525 39.9652 34.2988C40.3341 33.9252 41.5776 32.9933 41.0235 32.7407C41.306 32.987 41.8339 31.9069 42.1156 31.3401L42.2153 31.5623C42.2001 31.0961 42.3483 30.6393 42.6343 30.2709C42.7759 30.1681 42.8986 30.308 42.6483 30.4303C43.1319 30.1069 42.7442 29.92 43.3005 29.5099L43.2678 29.824C43.6622 29.398 43.5699 29.3759 43.6173 29.0004C43.6648 28.6248 44.3923 28.2198 44.6418 28.3185C44.6087 28.1828 44.6153 28.0405 44.6607 27.9084C44.706 27.7763 44.7884 27.66 44.8978 27.5733C44.9975 27.5646 44.9625 27.7383 44.9179 27.8024C45.6868 27.1831 45.6068 26.4974 46.239 26.151C46.2708 26.1659 46.306 26.1721 46.3409 26.169C46.3759 26.1659 46.4095 26.1537 46.4382 26.1336C46.1552 26.4879 45.8492 26.8231 45.5222 27.1372C45.7172 27.3009 46.1596 26.8506 46.1024 27.4579C46.2399 26.7912 46.5285 26.165 46.946 25.6274C46.9849 25.6164 47.0254 25.6129 47.0656 25.6169L47.0717 25.6867C47.1703 25.6013 47.2439 25.4908 47.2846 25.3669C47.4239 25.2662 47.5518 25.1507 47.666 25.0223C47.8731 25.0946 48.2163 24.5426 48.4063 24.3051C48.1715 24.145 48.4576 23.8589 48.0397 24.0159C48.0397 24.0159 48.0458 24.0857 47.9095 24.2482C47.8843 24.2873 47.8644 24.3295 47.8502 24.3738L47.3719 24.9879C47.3758 24.8385 47.4194 24.6929 47.4983 24.566C47.5772 24.4391 47.6885 24.3355 47.8207 24.266C47.7998 24.0269 47.7771 23.7679 47.7658 23.6384C48.3336 23.5887 49.0082 23.0378 49.2742 23.0949C49.7424 22.2508 50.5588 21.2559 50.4999 20.468C50.6076 20.2076 50.8073 20.3106 50.9351 20.2794C50.8784 20.4349 50.7603 20.5757 50.7707 20.6953C50.987 20.1845 51.6606 19.3928 51.4707 19.0581C52.0037 18.6099 51.5151 19.5661 52.0185 18.7792L52.0333 18.9486C53.6098 17.8069 53.0184 15.9814 54.798 14.7517C54.6855 14.8418 54.6192 14.8878 54.5577 14.8731C56.2539 13.1487 57.0877 10.7469 58.7449 9.03593C59.183 8.53584 59.017 8.35964 59.0791 7.92256L59.3949 7.97524L59.4482 7.20767C59.7258 6.24983 60.9637 6.17165 61.1501 4.86041L60.8911 4.88307C61.1404 4.51996 61.4839 3.62663 61.6507 3.8128C61.6455 3.75302 61.5401 3.58155 61.7125 3.48617L61.8589 3.55366L62.1603 2.52347C62.6632 1.84706 62.6387 2.94337 63.2597 1.89526C63.4232 1.46939 63.4834 0.550653 63.311 0.646037C63.1387 0.74142 63.0011 1.00441 62.8547 0.93692L62.9801 0.53446C62.6035 0.246182 62.339 -0.252667 61.5688 0.467199L61.4739 1.21833L61.1703 1.30512L61.4455 0.779134C61.1009 0.969901 61.1551 1.24622 61.1587 1.51694C61.0928 1.51175 61.0265 1.52085 60.9644 1.5436C60.9023 1.56636 60.8459 1.60224 60.7989 1.6488L60.8703 2.46568C60.6711 2.48311 60.7107 2.01789 60.3899 2.36718C60.423 2.74573 60.898 2.32273 60.7514 2.82742C60.3959 3.0091 60.3031 2.86664 60.2583 3.27209C60.1288 3.28342 60.1066 3.14483 60.1334 2.99191C60.086 3.36747 59.7241 3.82074 59.839 4.10179C59.4428 4.27699 59.2986 5.1529 58.9056 4.90621C58.9332 5.2548 58.8742 5.60482 58.7337 5.92507C58.5852 5.14504 58.0837 6.98575 57.6806 6.50907C57.8659 7.1353 57.0338 7.95093 56.8718 8.73805C56.8666 8.67827 56.857 8.56869 56.8535 8.52885C56.6614 8.75163 56.4337 8.94114 56.1798 9.0897C56.484 9.35419 56.1859 9.96248 56.1944 10.4034C55.5833 10.6476 55.9879 9.87943 55.5916 9.82376C55.8753 9.96958 55.353 10.7681 55.6735 10.7602C55.25 10.9679 55.383 10.9964 55.0009 10.9897C55.371 11.3187 54.8621 11.3532 54.9312 11.7988C54.4003 12.1565 54.4681 11.6687 54.2306 12.2817C53.9656 12.4655 54.1451 11.8776 54.1451 11.8776ZM44.8418 25.671C44.9526 25.5609 45.0799 25.4092 45.2063 25.2476C45.2281 25.2568 45.247 25.2717 45.261 25.2908C45.2749 25.31 45.2834 25.3325 45.2854 25.3561C45.2875 25.3797 45.2831 25.4034 45.2727 25.4246C45.2623 25.4459 45.2462 25.4639 45.2264 25.4767C45.2718 25.4225 45.0276 25.6146 44.8453 25.7108L44.8418 25.671ZM48.0796 24.8155C47.9757 25.0053 47.8969 25.0222 47.8254 25.0084L48.0301 24.7094C48.0525 24.7418 48.0692 24.7776 48.0796 24.8155Z" fill="#202020"/>
<path d="M30.3138 32.8197C30.3093 32.7934 30.307 32.7667 30.3068 32.74L30.1773 32.7514L30.1869 32.8609L30.3138 32.8197Z" fill="#202020"/>
<path d="M47.0214 20.819L47.0475 20.887L47.1093 20.7912L47.0214 20.819Z" fill="#202020"/>
<path d="M49.6953 5.19922C49.6587 5.1909 49.6204 5.19425 49.5857 5.20881C49.5857 5.20881 49.6446 5.19361 49.6953 5.19922Z" fill="#202020"/>
<path d="M53.1672 4.58353L52.7289 4.62188C52.8758 4.62014 53.0223 4.60732 53.1672 4.58353Z" fill="#202020"/>
<path d="M55.0434 4.17128C55.0392 4.21478 55.0431 4.25866 55.0547 4.30078L55.0434 4.17128Z" fill="#202020"/>
<path d="M24.9992 23.466C24.9995 23.4393 24.9971 23.4126 24.9923 23.3863C25.0437 23.171 25.0061 23.3149 24.9992 23.466Z" fill="#202020"/>
<path d="M31.0299 14.5148C31.0667 14.3903 31.1131 14.2687 31.1687 14.1513C31.0198 14.2848 30.909 14.3949 31.0299 14.5148Z" fill="#202020"/>
<path d="M23.2049 34.7821L23.2148 34.7812L23.1988 34.7124L23.2049 34.7821Z" fill="#202020"/>
<path d="M30.9343 14.4658C30.7887 14.5592 30.6717 14.691 30.5962 14.8467C30.7305 14.7407 30.845 14.6117 30.9343 14.4658Z" fill="#202020"/>
<path d="M57.8604 2.38454L57.0534 2.45514C57.2107 2.53172 57.4304 2.63296 57.0778 2.73407C58.143 2.86172 56.8248 2.5956 57.8604 2.38454Z" fill="#202020"/>
<path d="M54.5706 2.78792C54.1627 2.94407 54.5837 2.93735 54.5898 3.00708C54.8067 2.84757 54.9093 2.75829 54.5706 2.78792Z" fill="#202020"/>
<path d="M37.2255 8.2051L37.3269 8.44717C37.5984 8.22266 37.2385 8.35453 37.2255 8.2051Z" fill="#202020"/>
<path d="M35.4057 11.0601L35.0506 11.1313L35.075 11.4103L35.4057 11.0601Z" fill="#202020"/>
<path d="M32.0705 11.2857L31.9804 11.404L32.3432 10.9607L32.0705 11.2857Z" fill="#202020"/>
<path d="M21.7435 38.3742L21.4919 38.5969C21.6298 38.7957 21.984 38.7145 21.7435 38.3742Z" fill="#202020"/>
<path d="M32.3709 47.5254C32.2644 47.4307 32.1308 47.3719 31.989 47.3573C31.8472 47.3427 31.7044 47.373 31.5808 47.444C31.9022 47.446 32.2133 47.5593 32.3709 47.5254Z" fill="#202020"/>
<path d="M50.8881 18.5905C50.7574 18.5722 50.6278 18.5466 50.4999 18.514C50.7187 18.6053 50.9557 18.6749 51.1719 18.7363L50.8881 18.5905Z" fill="#202020"/>
<path d="M19.6163 64.4117C19.4745 64.3628 19.3889 64.7035 19.267 64.8731C19.1452 65.0427 19.3582 64.6084 19.3477 64.3932C19.1987 64.4265 18.9716 64.6868 18.9025 64.6418C18.9072 64.5879 18.9251 64.5359 18.9546 64.4905C18.7154 64.6937 18.6236 64.3766 18.3431 64.6078C18.3499 64.5785 18.3597 64.55 18.3724 64.5227C18.329 64.6874 18.2735 64.8485 18.2063 65.005C18.1401 64.9822 17.9929 65.1641 18.0645 64.9561C18.0645 64.9561 18.1473 64.9 18.2017 64.8341L18.0967 64.8932C18.2107 64.5623 18.2366 64.825 18.3558 64.6016C18.1846 64.6379 17.9076 64.8281 17.8583 64.6948C17.969 64.3733 18.1302 64.7038 18.1399 64.3686L18.2234 64.5561C18.3552 64.0197 18.3085 64.5854 18.4527 64.0745C18.3059 63.8864 18.1613 64.1222 18.0177 63.9247C17.893 64.0721 17.9266 64.1894 17.7829 64.3303C17.3637 64.5033 17.9465 63.456 17.545 63.7619C17.3883 63.9406 17.1853 64.315 17.1406 64.0457L17.3556 63.7284C17.186 63.6066 17.0034 64.1677 16.9243 63.8443C16.9859 63.6963 17.0615 63.7224 17.0615 63.7224C17.0711 63.3872 16.8735 63.8691 16.7822 63.8271L16.8929 63.5057C16.6754 63.4308 16.342 63.5698 16.0958 63.5168C16.1617 63.4333 16.1972 63.33 16.1968 63.2237C15.8424 63.2391 15.618 62.908 15.4314 62.5899L15.2078 62.8091C15.2078 62.8091 15.2534 62.6767 15.2697 62.6295C15.286 62.5822 15.2111 62.7997 15.0902 62.8744C14.9693 62.9491 15.0826 62.6814 15.1748 62.6285C14.8825 62.7711 14.4167 62.8646 14.3539 62.4939L14.4273 62.4346C14.3216 62.2501 14.0021 62.9016 13.9736 62.5851C13.6947 62.3198 13.2133 62.3973 13.1583 61.8813C12.9364 62.2491 12.9084 61.5626 12.6439 62.0849C12.5747 61.7332 12.6734 61.6615 12.4803 61.3623C12.4047 61.3362 12.2213 61.6538 12.1104 61.6686L12.2114 61.3754L11.9591 61.6165L12.0796 61.2666L11.9623 61.3002C11.9842 61.3788 11.9742 61.4627 11.9347 61.534C11.7505 61.6081 11.7008 61.1996 11.7623 61.0516L11.3471 61.1519C11.3943 61.0718 11.4643 61.0076 11.5481 60.9673C11.2613 61.1858 11.6555 60.6552 11.3847 60.8581C11.3706 60.9374 11.3442 61.0139 11.3066 61.0851C11.3066 61.0443 11.2974 61.004 11.2796 60.9673C11.2618 60.9306 11.2359 60.8984 11.2039 60.8732C11.1719 60.8479 11.1346 60.8302 11.0948 60.8214C11.0549 60.8127 11.0136 60.813 10.974 60.8225L11.0423 60.6239C10.8288 60.4763 10.5217 60.5081 10.2765 60.3602C10.329 60.484 10.1235 60.8046 10.1137 60.833L10.2211 60.5209C10.0898 60.6872 10.2544 60.6699 10.1007 60.8708C10.0061 60.8382 10.2211 60.5209 10.2569 60.4169L10.0982 60.4786C10.1217 60.3916 10.1511 60.3063 10.1861 60.2233C10.0643 60.3929 10.1077 59.8367 9.90246 60.1256L9.93501 60.0311C9.7265 59.976 9.51455 59.9348 9.30058 59.9078C9.20942 60.1726 9.12821 60.0706 8.97769 60.262C8.85896 60.1154 8.76365 59.8393 8.56803 59.7931C8.37242 59.7469 8.44262 60.0037 8.31488 60.129C8.39953 59.8831 8.20392 59.8369 8.36653 59.7025C8.14683 59.6393 7.91319 59.6436 7.69597 59.7149C7.66015 59.8189 7.70386 59.8763 7.61783 59.9418C7.5318 60.0074 7.54019 59.7988 7.59197 59.6791C7.13112 59.9117 7.12731 58.6942 6.67436 59.0882L6.31226 59.249C6.18934 59.2067 6.44975 59.0954 6.4262 58.9181C6.20655 59.0646 6.0996 59.0066 6.00862 58.933C5.95799 58.9068 5.90385 58.8882 5.84788 58.8776C5.84788 58.8776 5.84788 58.8776 5.74294 58.9367C5.86665 58.5774 5.86014 58.5963 5.84712 58.6341C5.8341 58.6719 5.66297 58.7082 5.88293 58.5301L5.71413 58.6518C5.52641 58.7669 5.80341 58.5767 5.8448 58.5487C5.69521 58.6452 5.6887 58.6642 5.58376 58.7232C5.47881 58.7823 5.37574 58.6516 5.47417 58.6114C5.64364 58.5204 5.82875 58.4622 6.01981 58.4397L5.27887 58.5336C4.8261 58.5892 4.4685 58.6142 4.99103 58.5403L5.6684 58.4774C5.27593 58.5115 5.346 58.4615 5.39684 58.4367C5.44768 58.4119 5.50473 58.3999 5.31888 58.3253L5.5458 58.4034C5.89952 58.4512 5.5458 58.4034 5.34724 58.3351C5.46578 58.3694 5.58254 58.4096 5.69709 58.4555C5.86728 58.5141 5.3567 58.3383 5.64036 58.436L5.74436 58.4718C5.61199 58.4262 5.80109 58.4913 5.50535 58.3366C5.66609 58.392 5.46226 58.216 5.6354 58.2968C5.41624 58.0733 5.8056 58.3554 5.50196 58.0393C5.65525 58.2084 5.73058 58.2661 5.75274 58.2632C5.80648 58.1962 5.83525 58.1126 5.83413 58.0268C5.88342 58.1601 5.99487 58.0821 6.05624 58.2725C6.14553 58.1975 6.18786 58.0745 6.03782 57.896C6.51848 58.2201 6.14806 57.2994 6.6301 57.8038C6.75331 57.4588 6.92589 57.1334 7.14245 56.838C7.38223 57.2167 6.88405 57.0663 7.1649 57.4485C7.27559 57.1271 7.22586 56.7186 7.52704 56.6425C7.61214 56.6718 7.60112 56.8267 7.62561 56.9091C7.7363 56.5877 8.11545 56.623 8.19157 56.2791C8.21055 56.3207 8.21669 56.367 8.20923 56.4121C8.20923 56.4121 8.34223 56.3944 8.26458 56.2513L8.24179 56.3175C8.0034 56.1191 8.05504 55.6927 7.9774 55.5496C8.23777 56.0835 8.27175 55.524 8.57165 56.2196C8.57254 56.1216 8.53747 56.0268 8.47308 55.953C8.52981 55.9725 8.60546 55.9985 8.64172 56.1697C8.71009 55.9711 8.55648 55.8336 8.69336 55.7432C8.74946 55.826 8.74264 55.8766 8.79224 55.9782C8.75629 55.7755 8.71414 55.56 8.8755 55.5521C9.03686 55.5442 8.95346 55.6636 8.92479 55.6854C9.10662 55.5259 8.97241 55.025 9.29808 55.0313C9.47755 55.4316 9.45882 55.0867 9.66759 55.4018L9.72619 55.2316L9.57554 55.1163C9.68373 55.0478 9.62329 54.7626 9.77783 54.8052L9.78867 54.9887L9.9392 54.7973L9.75955 54.7355C9.75553 54.5014 9.4787 54.3532 9.68114 54.3489C9.68114 54.3489 9.78934 54.2804 9.95534 54.4433C9.93768 54.3103 9.92327 54.1678 10.04 54.1974C10.1567 54.2271 10.2579 54.5475 10.3111 54.6081C10.1906 54.3128 10.5062 54.3791 10.3861 54.0522C10.4257 54.1492 10.4803 54.2394 10.5479 54.3195L10.4491 54.0845C10.5436 54.117 10.5814 54.13 10.6558 54.2826C10.824 54.2242 10.3463 53.9222 10.6241 53.9755C10.6241 53.9755 10.6241 53.9755 10.642 54.0769C10.8732 54.0507 10.8828 53.7156 11.1041 53.7178C11.3575 53.9954 11.0423 53.8974 11.252 54.1177C11.4406 53.9077 11.4864 53.4369 11.737 53.354L11.6803 53.3345C11.4161 52.8733 11.9923 53.4419 11.9635 53.157C11.9844 53.2351 12.0202 53.3085 12.0689 53.3731C12.2684 53.3466 12.3028 53.0623 12.4354 52.7695L12.4847 52.9028C12.6359 52.9549 12.7513 52.8043 12.8843 52.7866C12.835 52.6533 12.9331 52.6448 12.7639 52.4913C13.49 52.9317 13.0872 51.7671 13.7162 52.1212C13.7162 52.1212 13.6707 52.2536 13.7339 52.2542L13.885 51.9995C13.735 51.821 13.7817 51.9005 13.631 51.7851C13.4803 51.6698 13.583 51.5253 13.6403 51.4816C13.6257 51.6776 13.8523 51.7873 13.9622 51.8675C13.9055 51.8479 13.8908 51.7371 13.8471 51.6797C14.1924 51.9361 13.6044 51.2789 13.9415 51.4055L14.0005 51.5105C14.0298 51.4254 13.9841 51.251 14.0917 51.2457C14.2669 51.4435 14.0934 51.3944 14.2213 51.5759C14.3011 51.4976 14.1128 51.0309 14.3482 51.2072C14.3222 51.2828 14.3027 51.3395 14.2766 51.4152C14.5466 51.6139 14.5225 51.4998 14.6076 51.5291L14.8351 51.544L14.7406 51.5115C14.4593 50.8541 14.8949 51.2473 14.7953 50.7688C14.892 51.2252 14.9102 50.9882 15.072 51.2554C15.1665 51.288 15.2705 51.3238 15.3012 51.419C15.2405 51.1654 15.5281 51.4971 15.4021 51.1258C15.4615 51.1992 15.4817 51.0792 15.6092 51.2923C15.6548 51.16 15.4934 51.1679 15.4344 51.0629C15.3938 50.6893 15.9994 51.1728 15.9476 50.6474C16.042 50.3732 15.8678 50.0805 15.943 49.8314C16.1038 49.8868 16.0948 50.1586 16.0948 50.1586C16.265 50.2173 16.3194 50.1514 16.3398 49.9998C16.3794 50.0802 16.4399 50.1485 16.515 50.1976C16.541 50.1219 16.3633 49.8704 16.5334 49.929C16.5922 50.0478 16.6417 50.1709 16.6816 50.2973C16.7239 50.1743 16.6912 49.9621 16.7241 49.836C16.8399 49.9604 16.8197 50.0804 16.8534 50.1978C16.9042 50.1185 16.9342 50.0278 16.9406 49.9339C16.9471 49.84 16.9298 49.7459 16.8903 49.6605L16.7768 49.6214C16.7768 49.6214 16.9269 49.8 16.9262 49.8633C16.9651 50.0882 16.7554 49.8679 16.6993 49.7851L16.7286 49.7C16.347 49.2725 16.5429 49.9322 16.4063 49.991L16.2203 49.6096L16.2926 49.9835C16.1886 49.9477 16.061 49.7345 16.0841 49.6367C15.8666 49.5619 16.0887 49.8076 15.8908 49.6759C15.8702 49.6761 15.8502 49.6692 15.8341 49.6564L15.7852 49.7982C15.7513 49.7125 15.6009 49.5656 15.6926 49.576C15.4089 49.4783 15.622 49.9959 15.3901 49.7785C15.2957 50.0527 15.5425 50.0425 15.5828 50.4477L15.0538 49.8954L15.2061 50.1594C15.2061 50.1594 15.1399 50.1366 15.0454 50.104C15.0843 50.3289 15.136 50.2093 15.1974 50.3996C14.9366 50.2358 14.9889 50.698 14.6892 50.3092C14.7851 50.5221 14.8877 50.3776 14.8634 50.6019C14.5385 50.1939 14.8048 50.7721 14.5596 50.6242C14.3143 50.4763 14.6214 50.4445 14.3729 50.3061C14.5681 50.7223 14.1353 50.3512 14.1024 50.4774C14.305 50.7798 14.0178 50.7232 13.9527 50.9123C13.8936 50.8074 13.5921 50.9151 13.39 50.8878C13.5766 51.2059 13.4055 51.2421 13.3537 51.3618C13.2653 51.2531 13.2115 51.1204 13.1994 50.9808L13.1133 51.0463C13.1344 51.0841 13.1471 51.126 13.1505 51.1692C13.1539 51.2124 13.1479 51.2557 13.133 51.2964L13.0786 50.7171C12.9734 50.8078 13.027 51.1435 12.7681 51.0967C12.9051 51.3131 13.2912 51.6047 13.2255 51.857C13.1381 51.7423 13.0008 51.5576 13.0173 51.4787C13.0339 51.3998 13.035 51.6117 12.9815 51.5827L12.9143 51.348C12.7914 51.3057 12.9884 51.5321 12.9186 51.5504C12.8064 51.3849 12.7862 51.5048 12.7216 51.3239C12.657 51.143 12.8162 51.3565 12.7884 51.2835C12.7266 51.2891 12.6644 51.2815 12.6057 51.2613C12.547 51.2411 12.4933 51.2087 12.448 51.1663C12.5136 51.2523 12.5945 51.3859 12.5655 51.4394C12.5365 51.4929 12.3901 51.2732 12.2671 51.2309C12.3164 51.3642 12.1589 51.2994 12.3273 51.5477C12.3273 51.5477 12.1949 51.5022 12.1547 51.4037C12.1659 51.5556 11.8996 51.6226 12.1409 51.8432C12.1056 52.2223 11.6367 51.9868 11.5142 52.2197L11.4581 52.1369C11.3995 52.3071 11.2313 52.3655 11.2953 52.6096C11.2953 52.6096 11.1062 52.5445 11.0569 52.4112C11.0146 52.5341 11.0642 52.6358 10.8402 52.5798C10.8359 52.3774 10.7274 52.4775 10.8923 52.4286C10.7309 52.4365 10.6087 52.3309 10.6437 52.6285C10.5448 52.3935 10.3769 52.4203 10.36 52.5308L10.5491 52.596C10.5289 52.6251 10.503 52.6498 10.4729 52.6685C10.4428 52.6873 10.4092 52.6996 10.3741 52.7049L10.2221 52.4093C9.74931 52.2465 10.1788 53.2722 9.62015 52.8366C9.68741 53.0713 9.82817 52.9082 9.9365 53.1465C9.797 53.1831 9.42066 52.8631 9.37927 52.8912C9.13344 52.8065 9.51348 53.3922 9.28267 53.3867C9.3704 53.4698 9.57035 53.7185 9.51175 53.8886C9.45314 54.0588 9.09433 53.5651 9.11449 53.4451C9.13465 53.3252 9.16176 53.4614 9.19013 53.4712C9.20402 53.4317 9.20288 53.3885 9.18692 53.3499C9.17097 53.3112 9.14132 53.2798 9.10365 53.2616L9.15325 53.3633C9.02087 53.3177 8.88399 53.4081 8.8034 53.2428C8.75457 53.3847 8.87748 53.427 8.96909 53.4374C8.74217 53.3593 8.74944 53.5839 8.53755 53.5849C8.60373 53.6077 8.7006 53.7257 8.67518 53.7381C8.38082 53.7636 8.70431 53.9914 8.59223 54.1326C8.40313 54.0675 8.38408 53.7542 8.31865 53.9749C8.16737 53.9228 8.11871 53.7263 8.10074 53.6249C8.10118 53.9 7.76825 53.6691 7.66687 53.687L7.70594 53.5736C7.71063 53.5977 7.70889 53.6226 7.70089 53.6459C7.69289 53.6691 7.67891 53.6898 7.66036 53.7059L7.83582 53.8721C7.77909 53.8526 7.75072 53.8428 7.67508 53.8168C7.71785 53.969 7.92818 54.126 7.96708 54.3509C7.83471 54.3054 7.88894 54.5779 7.67954 54.326C7.91066 54.2998 7.4796 54.0773 7.60114 53.9394C7.60114 53.9394 7.57509 54.015 7.49294 54.0079C7.48298 53.9968 7.47561 53.9837 7.47137 53.9694C7.46714 53.9551 7.46614 53.9401 7.46845 53.9254C7.14697 53.8147 7.5915 54.2745 7.41649 54.3835C7.3359 54.2182 7.18493 54.1345 7.17811 54.185C7.17129 54.2356 7.37511 54.4115 7.38626 54.5634C7.20661 54.5016 7.32765 54.7336 7.2579 54.7519L7.35246 54.7845C7.43305 54.9497 7.3633 54.968 7.32128 55.0593C7.23387 54.9446 7.36035 54.9458 7.27851 54.9071C7.37025 55.2242 6.9003 54.7768 6.91052 55.0236C6.77815 54.978 6.71708 54.756 6.62579 54.714C6.62298 54.9986 6.34213 54.6164 6.31127 54.8596C6.48673 55.0257 6.46193 54.9749 6.4878 55.2376L6.59198 54.9351L6.63878 55.3214C6.70559 55.2809 6.71366 55.1039 6.72017 55.085C6.76558 55.291 6.73132 55.2369 6.88167 55.3838C6.58981 55.1564 6.78399 55.6675 6.56684 55.561L6.23965 55.0676C5.92763 54.9601 6.08989 55.5025 5.82389 55.5378L5.94681 55.5802C6.0522 55.7963 5.83179 55.6992 5.85891 55.8355C5.78507 55.7233 5.68783 55.6285 5.57387 55.5575C5.66129 55.6722 5.41483 55.6508 5.61384 55.9943L5.36862 55.8464C5.13751 55.8726 5.48918 56.4485 5.29263 56.4971C5.21886 56.2814 5.07083 56.2198 5.08867 56.0144C5.07239 56.0617 4.95862 56.0543 5.03658 56.1657C4.92312 56.1267 5.0302 56.4914 4.8828 56.3666C4.90729 56.4491 5.01299 56.6335 4.93998 56.6613C4.91741 56.6365 4.89853 56.6086 4.88388 56.5785C4.93999 56.6613 4.82853 56.7392 5.03887 56.8963C4.99795 56.862 4.95058 56.8363 4.89957 56.8206C4.84855 56.8049 4.79491 56.7996 4.74181 56.805C4.68871 56.8104 4.63723 56.8263 4.59038 56.8519C4.54354 56.8775 4.50229 56.9121 4.46906 56.9539C4.39654 57.0382 4.29977 57.0981 4.19195 57.1253C4.08414 57.1525 3.97055 57.1458 3.8667 57.1061C3.75787 57.2643 3.63006 57.4085 3.48613 57.5356C3.41995 57.5128 3.37267 57.4965 3.41995 57.5128C2.97957 57.5938 3.97981 57.8219 3.52704 57.8775C3.07426 57.9332 3.41451 57.7436 3.18665 57.7603C2.29661 57.5808 3.01365 57.9863 2.31147 57.9984C1.83653 58.0569 2.35625 58.2676 2.07986 58.3945L1.92858 58.3425C2.33516 58.4825 2.31174 58.6119 2.32972 58.7133C2.093 58.6879 1.8541 58.6909 1.61808 58.722C1.6018 58.7693 2.44086 58.6669 2.44318 58.7523C2.12014 58.7997 1.75866 58.8974 1.16343 58.9674L1.30682 58.8581C0.492875 58.9798 1.10608 59.0111 0.890305 59.0849L0.573787 59.1134C0.573787 59.1134 0.550997 59.1796 0.554253 59.1701C0.974624 59.1553 1.39549 59.1763 1.81228 59.2331L2.02154 59.1783C2.93004 59.0892 1.72299 59.3081 2.43199 59.2456L1.74716 59.4222C2.05067 59.4315 2.81314 59.3979 3.08176 59.4164C2.59254 59.4732 2.09933 59.4873 1.60765 59.4588C1.88009 59.5515 2.17195 59.5718 2.4546 59.5177C2.36005 59.4852 2.12862 59.543 2.18598 59.4993C2.58305 59.4057 2.99442 59.3893 3.39767 59.4511C2.8201 59.6542 2.89838 59.734 3.04935 59.8177C3.20032 59.9014 3.38973 59.9349 3.14992 60.2014C3.88078 60.1675 3.94911 60.614 4.57346 60.7973C4.7688 60.23 4.7342 60.8526 5.02115 60.2957C5.12516 60.3315 5.16298 60.3446 5.16298 60.3446C5.2233 60.4893 5.27464 60.6377 5.31672 60.7888C5.30539 60.9753 5.19875 60.8857 5.15317 61.0181C5.29763 61.1207 5.12526 61.2834 5.17392 61.48C5.24554 61.272 5.34103 61.2096 5.39683 61.324L5.36832 61.0075C5.70888 60.7863 5.37868 61.5611 5.71924 61.3399L5.58174 61.4935C5.74047 61.4318 6.01667 61.6432 6.30206 61.2444C6.27927 61.3106 6.22393 61.4713 6.2109 61.5092C6.4558 61.6887 7.01664 61.2578 7.12047 61.632L7.07164 61.7738C7.12837 61.7934 7.2668 61.5449 7.27144 61.7157C7.27608 61.8865 7.22261 61.8575 7.21935 61.867C7.2161 61.8764 7.45203 61.6827 7.48892 61.7906L7.37064 61.9191C7.56701 62.2088 7.93255 61.7001 8.19823 61.6964C8.13742 61.8127 8.11211 61.9443 8.12544 62.0748C8.13877 62.2054 8.19015 62.3292 8.27321 62.4308L8.25367 62.4875C8.5429 62.6612 8.91897 62.3676 9.27983 62.3332C9.27158 62.8486 9.80682 62.7685 9.99606 63.1404C10.0069 63.0742 10.031 63.0108 10.0669 62.9541C10.1028 62.8974 10.1497 62.8486 10.2049 62.8104C10.2418 62.9183 10.5073 62.6078 10.3393 62.973C10.209 63.3512 10.4118 63.3152 10.5187 63.3732L10.748 62.8916C10.7272 63.72 11.6044 62.9538 11.4805 63.6515C11.5985 63.5546 11.6898 63.5966 11.8045 63.5092L11.7133 63.774C11.8406 63.9227 12.0191 64.0182 12.2135 64.0414L12.0822 64.2077C12.2146 64.2533 12.5791 63.5327 12.7114 63.5783L12.5747 63.9754C12.8111 64.0568 12.8856 64.5161 13.2838 64.2196C13.2643 64.2763 13.2252 64.3897 13.1525 64.3859C13.266 64.4249 13.4422 64.8346 13.65 64.2927C13.5262 64.652 13.8668 64.4309 14.0575 64.3379L13.9663 64.6026C14.2188 64.33 14.2608 64.2387 14.4476 64.2184C14.6344 64.1981 14.3727 64.4359 14.3988 64.3602C14.4507 64.5473 14.6031 64.1662 14.6739 64.3598L14.5429 64.4945C14.6659 64.5368 14.6854 64.48 14.8356 64.3202C14.9858 64.1604 15.03 64.4929 14.9391 64.7261C14.9879 64.5842 15.176 64.4375 15.2161 64.5359C15.1975 64.5969 15.1605 64.6506 15.1102 64.6898C15.2215 64.9502 15.545 64.5328 15.5546 64.8428C15.5266 64.8926 15.5078 64.9471 15.4993 65.0036C15.3386 64.9482 15.2257 64.8459 15.2511 64.8335C15.1665 65.0793 15.2415 65.1686 15.0363 65.4575C15.2178 65.3297 15.5749 65.0296 15.6428 65.201C15.6352 65.2301 15.6254 65.2585 15.6135 65.2861C15.6135 65.2861 15.6702 65.3057 15.6986 65.3154C15.727 65.3252 15.7293 65.4106 15.7639 65.4331C15.6955 65.6316 15.8539 65.6016 15.9136 65.6433C16.0047 65.3785 16.0892 65.4711 16.1201 65.2279C16.1201 65.2279 16.1201 65.2279 16.0633 65.2083L15.9026 65.153C16.0144 65.0434 16.1164 64.9622 16.1178 65.1425L16.4028 64.7753C16.2726 65.1535 16.3868 65.4361 16.3054 65.6725C16.5652 65.6244 16.7877 65.8385 17.1464 65.3803C17.2321 65.3464 17.0943 65.5316 17.125 65.6268C17.1556 65.7219 17.0493 65.6007 16.9851 65.695C17.1566 65.6271 17.3255 65.8122 17.5216 65.4884C17.5827 65.7103 17.2913 65.7581 17.5123 65.7919L17.4765 65.8959C17.5802 66.6085 18.5002 65.3494 18.5544 66.267C18.5555 66.2192 18.5714 66.173 18.6 66.1347C18.9141 66.6659 19.7016 66.3448 19.9034 67.0488C19.984 67.214 20.1061 67.0129 20.2655 66.8879L20.1678 67.1716L20.4611 66.9341C20.7691 66.8075 20.4403 67.7625 20.9112 67.4699L20.9796 67.2713C21.0484 67.3479 21.3144 67.3126 21.1828 67.5105C21.1828 67.5105 21.3141 67.3442 21.2972 67.4547L21.2451 67.606L21.5847 67.4797C21.6998 67.6674 21.2632 68.0141 21.483 68.1744C21.6862 68.1089 21.8599 67.9741 21.9737 67.7934C21.9737 67.7934 21.9245 67.6601 22.0049 67.5186L22.1317 67.4882C22.409 67.1542 22.5765 66.7429 22.6114 66.3102L22.3376 66.4909L22.4125 66.2735L22.5449 66.319C22.6165 66.111 22.4314 66.28 22.3424 66.3234C22.3892 66.249 22.4182 66.1649 22.4271 66.0775L22.0761 66.3903C22.1347 66.2201 22.313 66.1017 22.2259 65.9554C22.06 66.0992 22.0924 66.343 21.921 66.4109C21.9926 66.2029 22.0479 66.0422 21.8886 66.1671C21.9138 66.0837 21.9685 66.0124 22.0424 65.9662C21.9055 66.0566 21.8343 65.8946 21.6741 66.1144C21.762 65.8591 21.4093 66.0232 21.6184 65.6616C21.5859 65.7562 21.3346 65.9023 21.2557 65.8857C21.617 65.4813 21.0232 65.7316 21.319 65.2412C21.0117 65.6113 20.9014 65.2561 20.6247 65.4146C20.6247 65.4146 20.6605 65.3106 20.7075 65.3585C20.7544 65.4064 20.678 65.1369 20.6633 65.026C20.4702 65.372 20.2899 65.3734 20.111 65.555C20.1718 65.1635 20.3866 65.1846 20.526 64.8412C20.4218 65.1438 20.189 65.0213 20.1106 65.2799C20.106 65.1266 20.1367 64.9744 20.2003 64.8349C19.959 65.2594 20.083 64.8685 19.8751 65.1036C19.8652 64.8252 20.0249 64.6687 19.8502 64.746C19.7819 64.7205 19.723 64.6749 19.6813 64.6152C19.6395 64.5555 19.6169 64.4845 19.6163 64.4117ZM15.8112 63.514L15.9342 63.5563C15.9016 63.6508 15.8691 63.7454 15.825 63.7197C15.781 63.6939 15.8201 63.5805 15.8116 63.4823L15.8112 63.514ZM15.5289 65.532C15.4816 65.5157 15.4721 65.5124 15.4982 65.4368L15.5738 65.4628C15.5615 65.48 15.5487 65.4967 15.5354 65.5131L15.5289 65.532Z" fill="#202020"/>
</svg>
